<svg id="Camada_1" data-name="Camada 1" xmlns="http://www.w3.org/2000/svg" viewBox="0 0 864.8 665.8"><defs><style>.cls-1{fill:#dadada;}.cls-2{fill:#464646;}.cls-3,.cls-4{isolation:isolate;fill:#4c4c4c;font-family:OpenSans-SemiBold, Open Sans;font-weight:600;}.cls-3{font-size:24px;}.cls-4{font-size:21px;}</style></defs><polygon class="cls-1" points="57.7 81.3 41.7 90.8 41.7 139.2 82.5 163 98.4 153.6 57.7 129.8 57.7 81.3"/><polygon class="cls-1" points="142.6 56.8 126.7 47.3 126.7 78.2 142.6 86.6 142.6 56.8"/><polygon class="cls-1" points="61.7 108.8 61.7 127.4 101.7 150.8 142.6 126.8 142.6 108.5 102.1 131.9 61.7 108.8"/><polygon class="cls-1" points="122.7 44.8 81.8 20.6 66 30 106.7 54.4 106.7 68 122.7 76.3 122.7 44.8"/><polygon class="cls-1" points="62.6 55.4 20.6 79.5 20.6 127.9 37.7 137.8 37.7 88.9 58 76.8 62.3 74.3 78.8 64.6 62.6 55.4"/><polygon class="cls-1" points="62.8 32.6 21.6 57.1 21.6 75.3 62.3 52 82 63.1 86.1 65.4 102.7 74.7 102.7 56.6 62.8 32.6"/><polygon class="cls-1" points="759.7 564.3 743.7 573.6 743.7 621.1 784.4 644.3 800.3 635.2 759.7 612 759.7 564.3"/><polygon class="cls-1" points="844.7 539.6 828.7 530.3 828.7 560.6 844.7 568.9 844.7 539.6"/><polygon class="cls-1" points="762.7 591.1 762.7 609.6 803.2 632.8 844.7 609 844.7 590.8 803.6 614 762.7 591.1"/><polygon class="cls-1" points="824.7 527.7 784 503.9 768.3 513.1 808.7 537 808.7 550.4 824.7 558.6 824.7 527.7"/><polygon class="cls-1" points="764.5 538.6 722.7 562.2 722.7 609.7 739.7 619.4 739.7 571.5 760 559.6 764.2 557.1 780.7 547.5 764.5 538.6"/><polygon class="cls-1" points="764.3 515.4 722.7 539.7 722.7 557.9 763.8 534.7 783.7 545.7 787.8 548 804.7 557.3 804.7 539.3 764.3 515.4"/><path class="cls-2" d="M864.8,534.8a10.46,10.46,0,0,0-10.4-10.4,10.19,10.19,0,0,0-8.6,4.6l-52.6-30.4a10,10,0,0,0,1.4-5.1v.1a10.81,10.81,0,0,0-10-10.8V423.5a10.23,10.23,0,0,0,9.5-11,10,10,0,0,0-.8-3.3l52.2-30.1a10.4,10.4,0,0,0,16.4-12.8,10.76,10.76,0,0,0-7.4-4v-59a10.42,10.42,0,1,0-9-16.7L793,256.2a9.88,9.88,0,0,0,1-4.5h0a10.52,10.52,0,0,0-9.6-10.4V182.1a10.52,10.52,0,0,0,9.6-10.4,11.38,11.38,0,0,0-1-4.5L845.1,137a10.19,10.19,0,0,0,8.6,4.6A10.52,10.52,0,0,0,864,131.1h0a10.49,10.49,0,0,0-9.5-10.3V61.3A10.33,10.33,0,0,0,863.8,50,10.43,10.43,0,0,0,853,40.6a10.26,10.26,0,0,0-7.9,4.6L793.1,15a9.88,9.88,0,0,0,1-4.5,10.36,10.36,0,1,0-20.7-.7v.6h0a11.38,11.38,0,0,0,1,4.5L722.3,45.1a10.19,10.19,0,0,0-8.6-4.6h0a10.19,10.19,0,0,0-8.6,4.6L653.2,15a9.88,9.88,0,0,0,1-4.5,10.35,10.35,0,0,0-20.7.1,9.76,9.76,0,0,0,1,4.4l-52,30.2a10.19,10.19,0,0,0-8.6-4.6h0a10.19,10.19,0,0,0-8.6,4.6L513.2,15a10.34,10.34,0,0,0-4.9-13.8,11.37,11.37,0,0,0-3.6-1h-3.3a10.73,10.73,0,0,0-9.8,6.1,10.42,10.42,0,0,0,0,8.8L439.5,45.3a10.19,10.19,0,0,0-8.6-4.6h0a10.19,10.19,0,0,0-8.6,4.6L370.3,15a8.79,8.79,0,0,0,1-3.6,10.34,10.34,0,1,0-20.6-1.8v.9a11.38,11.38,0,0,0,1,4.5L299.6,45.2a10.19,10.19,0,0,0-8.6-4.6h0a10.19,10.19,0,0,0-8.6,4.6L230.3,15a8.79,8.79,0,0,0,1-3.6,10.34,10.34,0,0,0-20.6-1.8v.9a11.38,11.38,0,0,0,1,4.5L159.6,45.2a10.19,10.19,0,0,0-8.6-4.6h0a10.19,10.19,0,0,0-8.6,4.6L90.8,15a8.79,8.79,0,0,0,1-3.6A10.39,10.39,0,0,0,71.1,9.6v.9a11.38,11.38,0,0,0,1,4.5l-52,30.2a10.19,10.19,0,0,0-8.6-4.6A10.37,10.37,0,0,0,1.2,51v.1a10.49,10.49,0,0,0,9.5,10.3v59.5a10.43,10.43,0,1,0,9,16.8l52.4,30.4a9.88,9.88,0,0,0-1,4.5A10.52,10.52,0,0,0,80.7,183v58.7a10.52,10.52,0,0,0-9.6,10.4h0a11.38,11.38,0,0,0,1,4.5L20,286.6a10.19,10.19,0,0,0-8.6-4.6A10.56,10.56,0,0,0,1,292.6a10.36,10.36,0,0,0,9.6,10.3l-1,58.6a10.53,10.53,0,1,0,1.6,21,10.41,10.41,0,0,0,7.5-4l53,30.4a10.55,10.55,0,0,0,5.6,13.7,12.26,12.26,0,0,0,3.3.8v60.1A10.57,10.57,0,0,0,70.8,494a10,10,0,0,0,1.1,4.5L19.1,528.8a10.46,10.46,0,0,0-8.7-4.7A10.72,10.72,0,0,0,0,534.8H0a10.6,10.6,0,0,0,9.6,10.4v58.5a10.43,10.43,0,1,0,9,16.8l52.7,30.4a9.47,9.47,0,0,0-1,4.4,10.24,10.24,0,0,0,6.3,9.7,10.52,10.52,0,0,0,13.7-5.6,11,11,0,0,0,.8-4h0a11.38,11.38,0,0,0-1-4.5l52.7-30.4a12.09,12.09,0,0,0,1.6,1.6,10.7,10.7,0,0,0,6.6,2.4h0a10.53,10.53,0,0,0,8.2-4l52.7,30.4a9.47,9.47,0,0,0-1,4.4,10.24,10.24,0,0,0,6.3,9.7,10.52,10.52,0,0,0,13.7-5.6,11,11,0,0,0,.8-4h0a10,10,0,0,0-1.4-5.1L283,620a10.48,10.48,0,0,0,2,2.2,10.7,10.7,0,0,0,6.6,2.4h0a10.19,10.19,0,0,0,8.6-4.6l52.3,30.2a9.88,9.88,0,0,0-1,4.5,10.4,10.4,0,0,0,20.8,0h0a11.38,11.38,0,0,0-1-4.5L423.6,620a10.48,10.48,0,0,0,2,2.2,10.7,10.7,0,0,0,6.6,2.4h0a10.19,10.19,0,0,0,8.6-4.6l52.3,30.2a10,10,0,0,0-1.4,5.1,10.41,10.41,0,0,0,10.5,10.4,5.7,5.7,0,0,0,1.3-.1,10.56,10.56,0,0,0,8.3-6.8,10.12,10.12,0,0,0-.4-8l52.7-30.4a12.09,12.09,0,0,0,1.6,1.6,10.7,10.7,0,0,0,6.6,2.4h0a10.19,10.19,0,0,0,8.6-4.6L633.2,650c-.1.2-.2.3-.2.5a10.11,10.11,0,0,0,0,8,10.52,10.52,0,0,0,9.6,6.3h0A10.46,10.46,0,0,0,653,654.4a11.38,11.38,0,0,0-1-4.5l52.4-30.2a10.48,10.48,0,0,0,2,2.2,10.7,10.7,0,0,0,6.6,2.4h0a10.19,10.19,0,0,0,8.6-4.6l52.3,30.2a9.88,9.88,0,0,0-1,4.5,10.4,10.4,0,0,0,20.8,0h0a11.38,11.38,0,0,0-1-4.5L845,619.7a10.19,10.19,0,0,0,8.6,4.6,10.43,10.43,0,0,0,.8-20.8V544.9a10.06,10.06,0,0,0,9.3-10.1m-71.2-41.4a8.85,8.85,0,1,1-8.9-8.9,9.05,9.05,0,0,1,8.9,8.9m-19.2,0h0a11.5,11.5,0,0,0,.8,4.1c.2.4.4.7.6,1.1l-52.2,30.1a10.32,10.32,0,0,0-14.1-3.9.1.1,0,0,0-.1.1,9.91,9.91,0,0,0-3.8,3.8l-52.2-30.1a10,10,0,0,0,1.4-5.1v.1a10.81,10.81,0,0,0-10-10.8V424.4a10.45,10.45,0,0,0,9.6-10.4,11.38,11.38,0,0,0-1-4.5L705,379.1a12.09,12.09,0,0,0,1.6,1.6,10.7,10.7,0,0,0,6.6,2.4h0a10.19,10.19,0,0,0,8.6-4.6l52.3,30.2c-.1.2-.2.3-.2.5a10.37,10.37,0,0,0,5.5,13.5,13.23,13.23,0,0,0,3.3.8v59.4a10.57,10.57,0,0,0-9.8,10.5h0m-50.6,40.5a8.9,8.9,0,1,1-8.9-8.9,8.92,8.92,0,0,1,8.9,8.9m-88.9-40.5h0a11.5,11.5,0,0,0,.8,4.1c.2.4.3.7.5,1.1l-52.2,30.1a10.5,10.5,0,0,0-9-5.2h0a10.5,10.5,0,0,0-9,5.2l-52.2-30.1a10,10,0,0,0,1.4-5.1v.1a10.81,10.81,0,0,0-10-10.8V423.6a10.4,10.4,0,0,0,9.6-11.1,8.87,8.87,0,0,0-.8-3.2l52.4-30.2a12.09,12.09,0,0,0,1.6,1.6,10.7,10.7,0,0,0,6.6,2.4h0a10.53,10.53,0,0,0,8.2-4L634,409.5a9.88,9.88,0,0,0-1,4.5,10.45,10.45,0,0,0,9.6,10.4V483a10.45,10.45,0,0,0-9.6,10.4h0m-51.2,40.5a8.92,8.92,0,0,1-8.9,8.9,9.05,9.05,0,0,1-8.9-8.9,8.77,8.77,0,0,1,1.1-4.2,8.92,8.92,0,0,1,12-3.7,9.43,9.43,0,0,1,4.7,7.9m-89.5-40.5h0a11.5,11.5,0,0,0,.8,4.1c.2.4.3.7.5,1.1l-52.2,30.1a10.5,10.5,0,0,0-9-5.2h0a10.5,10.5,0,0,0-9,5.2l-52.2-30.1a10,10,0,0,0,1.4-5.1v.1a10.81,10.81,0,0,0-10-10.8V423.7a10.4,10.4,0,0,0,9.6-11.1,8.87,8.87,0,0,0-.8-3.2l52.5-30.2a12.09,12.09,0,0,0,1.6,1.6,10.7,10.7,0,0,0,6.6,2.4h0a10.53,10.53,0,0,0,8.2-4l52.5,30.2a10.3,10.3,0,0,0,5.6,13.5,11.56,11.56,0,0,0,3.2.8V483a10.44,10.44,0,0,0-9.5,10.4h0m-50.7,40.5a8.92,8.92,0,0,1-8.9,8.9,8.9,8.9,0,1,1,8.9-8.9m-89.1-40.5h0a11.5,11.5,0,0,0,.8,4.1c.2.4.4.7.6,1.1l-52.2,30.1a10.32,10.32,0,0,0-14.1-3.9.1.1,0,0,0-.1.1,9.91,9.91,0,0,0-3.8,3.8l-52.2-30.1a10,10,0,0,0,1.4-5.1v.1a10.81,10.81,0,0,0-10-10.8V423.6a10.45,10.45,0,0,0,9.6-10.4,11.38,11.38,0,0,0-1-4.5l52.3-30.2a10.48,10.48,0,0,0,2,2.2,10.7,10.7,0,0,0,6.6,2.4h0a10.19,10.19,0,0,0,8.6-4.6l52.3,30.2c-.1.2-.2.3-.2.5a10.37,10.37,0,0,0,5.5,13.5,13.23,13.23,0,0,0,3.3.8v59.4a10.57,10.57,0,0,0-9.8,10.5h0m-51.1,40.5a8.9,8.9,0,1,1-8.9-8.9,8.92,8.92,0,0,1,8.9,8.9M211,493.4h0a11.5,11.5,0,0,0,.8,4.1c.1.1.1.3.2.4l-52.3,30.2a10.19,10.19,0,0,0-8.6-4.6h0a10.5,10.5,0,0,0-9,5.2L89.9,498.6a10.67,10.67,0,0,0,1.4-5.2,10.55,10.55,0,0,0-9.6-10.5V423.5a10.45,10.45,0,0,0,9.6-10.4,11.38,11.38,0,0,0-1-4.5l52.3-30.2a10.48,10.48,0,0,0,2,2.2,10.7,10.7,0,0,0,6.6,2.4h0a10.53,10.53,0,0,0,8.2-4l52.4,30.2a10.26,10.26,0,0,0,5.5,13.4,12.26,12.26,0,0,0,3.3.8v59.4a11,11,0,0,0-9.6,10.6h0m-50.6,40.5a8.92,8.92,0,0,1-8.9,8.9,8.9,8.9,0,0,1,0-17.8,8.86,8.86,0,0,1,8.9,8.9M91.3,252.1h0a10.55,10.55,0,0,0-9.6-10.5V182.8a10.45,10.45,0,0,0,9.6-10.4,10,10,0,0,0-1.4-5.1l52.7-30.4a10.32,10.32,0,0,0,8.6,4.6h0a10.19,10.19,0,0,0,8.6-4.6l52.7,30.4a10,10,0,0,0-1.4,5.1,10.45,10.45,0,0,0,9.6,10.4v58.8a10.33,10.33,0,0,0-8.8,6.3,11,11,0,0,0-.8,4h0a11.38,11.38,0,0,0,1,4.5l-52.4,30.3a10.19,10.19,0,0,0-8.6-4.6h0a10.19,10.19,0,0,0-8.6,4.6l-52.2-30a15.21,15.21,0,0,0,1-4.6h0m51.3-120.8a8.66,8.66,0,0,1,1.9-5.4,8.93,8.93,0,1,1-.8,9.7,10.53,10.53,0,0,1-1.1-4.3M231,167.5l52.6-30.3a10.48,10.48,0,0,0,2,2.2,10.7,10.7,0,0,0,6.6,2.4h0a10.19,10.19,0,0,0,8.6-4.6l52.3,30.2c-.1.2-.2.3-.2.5a10.37,10.37,0,0,0,5.5,13.5,13.23,13.23,0,0,0,3.3.8v59.5a10.33,10.33,0,0,0-8.8,6.3,11,11,0,0,0-.8,4h0a11.38,11.38,0,0,0,1,4.5l-52.7,30.4a10.33,10.33,0,0,0-14.4-2,9.48,9.48,0,0,0-2,2l-52.7-30.4a9.88,9.88,0,0,0,1-4.5h0a10.45,10.45,0,0,0-9.6-10.4V182.9a10.45,10.45,0,0,0,9.6-10.4,9.58,9.58,0,0,0-1.3-5m52-36.2a8.66,8.66,0,0,1,1.9-5.4,8.93,8.93,0,1,1-.8,9.7,10.53,10.53,0,0,1-1.1-4.3m88.2,36,52.3-30.2a10.48,10.48,0,0,0,2,2.2,10.7,10.7,0,0,0,6.6,2.4h0a10.19,10.19,0,0,0,8.6-4.6L493,167.3c-.1.2-.2.3-.2.5a10.37,10.37,0,0,0,5.5,13.5,13.23,13.23,0,0,0,3.3.8v59.5a10.33,10.33,0,0,0-8.8,6.3,11,11,0,0,0-.8,4h0a11.38,11.38,0,0,0,1,4.5L440.3,287a10.33,10.33,0,0,0-14.4-2,9.48,9.48,0,0,0-2,2l-52.7-30.4a9.88,9.88,0,0,0,1-4.5h0a10.45,10.45,0,0,0-9.6-10.4V182.2a10.45,10.45,0,0,0,9.6-10.4,8.75,8.75,0,0,0-1-4.5m52.3-36a8.66,8.66,0,0,1,1.9-5.4,8.93,8.93,0,1,1-.8,9.7,10.53,10.53,0,0,1-1.1-4.3m88.8,36,52.3-30.2a10.48,10.48,0,0,0,2,2.2,10.7,10.7,0,0,0,6.6,2.4h0a10.19,10.19,0,0,0,8.6-4.6l52.3,30.2c-.1.2-.2.3-.2.5a10.37,10.37,0,0,0,5.5,13.5,13.23,13.23,0,0,0,3.3.8v59.5a10.33,10.33,0,0,0-8.8,6.3,11,11,0,0,0-.8,4h0a11.38,11.38,0,0,0,1,4.5l-52.7,30.4a10.32,10.32,0,0,0-14.3-2.1,10.45,10.45,0,0,0-2.1,2.1l-52.7-30.4a9.88,9.88,0,0,0,1-4.5h0a10.45,10.45,0,0,0-9.6-10.4V182.2a10.45,10.45,0,0,0,9.6-10.4,13.42,13.42,0,0,0-1-4.5m51.8-36a8.66,8.66,0,0,1,1.9-5.4,8.93,8.93,0,1,1-.8,9.7,7.3,7.3,0,0,1-1.1-4.3m88.3,36,52.3-30.2a10.48,10.48,0,0,0,2,2.2,10.7,10.7,0,0,0,6.6,2.4h0a10.53,10.53,0,0,0,8.2-4l52.4,30.2a10.26,10.26,0,0,0,5.5,13.4,13.23,13.23,0,0,0,3.3.8v59.5a10.33,10.33,0,0,0-8.8,6.3,11,11,0,0,0-.8,4h0a11.38,11.38,0,0,0,1,4.5l-52.7,30.4a10.32,10.32,0,0,0-14.3-2.1,10.45,10.45,0,0,0-2.1,2.1l-52.7-30.4a9.88,9.88,0,0,0,1-4.5h0a10.45,10.45,0,0,0-9.6-10.4V182.2a10.45,10.45,0,0,0,9.6-10.4,7.79,7.79,0,0,0-.9-4.5m52-36a8.66,8.66,0,0,1,1.9-5.4,8.93,8.93,0,1,1-.8,9.7,10.53,10.53,0,0,1-1.1-4.3m-.6,246.6-52.6,30.3a10.41,10.41,0,0,0-14.3-2.9,13.29,13.29,0,0,0-2.9,2.9l-52.6-30.3a18.77,18.77,0,0,0,1.2-3v-.5a11,11,0,0,0,.2-1.8h0a10,10,0,0,0-9.2-10V303.3a10.45,10.45,0,0,0,9.6-10.4,10.19,10.19,0,0,0-1.3-5.1l52.6-30.3a10.41,10.41,0,0,0,14.3,2.9,13.29,13.29,0,0,0,2.9-2.9l52.6,30.3a10.19,10.19,0,0,0-1.3,5.1,10.45,10.45,0,0,0,9.6,10.4v58.8h-.2a14.16,14.16,0,0,0-2,.4,10.84,10.84,0,0,0-1.9.8,10,10,0,0,0-4.6,5.1,11,11,0,0,0-.8,4h0a7.91,7.91,0,0,0,1.2,5.2m-60.5,45.5h-1.5a9,9,0,1,1,1.5,0Zm-80-45.2L511.6,408a10.39,10.39,0,0,0-18,0l-52.2-30.1a18.77,18.77,0,0,0,1.2-3v-.5a11,11,0,0,0,.2-1.8h0a10,10,0,0,0-9.2-10V303.3a10.45,10.45,0,0,0,9.6-10.4,10.19,10.19,0,0,0-1.3-5.1l52.6-30.3a10.41,10.41,0,0,0,14.3,2.9,13.29,13.29,0,0,0,2.9-2.9l52.6,30.3a10.19,10.19,0,0,0-1.3,5.1,10.45,10.45,0,0,0,9.6,10.4v58.8h-.7a14.16,14.16,0,0,0-2,.4,10.84,10.84,0,0,0-1.9.8,10,10,0,0,0-4.6,5.1,11,11,0,0,0-.8,4h0a9.5,9.5,0,0,0,1.2,5.2m-52.3,35.7a8.9,8.9,0,1,1-8.9-8.9h0a8.86,8.86,0,0,1,8.9,8.9m-88.6-35.4L370.7,408a10.5,10.5,0,0,0-9-5.2h0a10.19,10.19,0,0,0-8.6,4.6l-52.3-30.2a6.81,6.81,0,0,0,.8-2.4v-.5a11,11,0,0,0,.2-1.8h0a10,10,0,0,0-9.2-10V303.3a10.45,10.45,0,0,0,9.6-10.4,10.19,10.19,0,0,0-1.3-5.1l52.6-30.3a10.41,10.41,0,0,0,14.3,2.9,13.29,13.29,0,0,0,2.9-2.9l52.6,30.3a10.19,10.19,0,0,0-1.3,5.1,10.45,10.45,0,0,0,9.6,10.4v58.8h-.2a14.16,14.16,0,0,0-2,.4,10.84,10.84,0,0,0-1.9.8,10,10,0,0,0-4.6,5.1,11,11,0,0,0-.8,4h0a8.92,8.92,0,0,0,1.3,5.3M371,413.3a8.92,8.92,0,0,1-8.9,8.9,9.05,9.05,0,0,1-8.9-8.9,8.77,8.77,0,0,1,1.1-4.2,8.92,8.92,0,0,1,12-3.7,9,9,0,0,1,4.7,7.9m-88.5-36-52.3,30.2a10.19,10.19,0,0,0-8.6-4.6h0a10.5,10.5,0,0,0-9,5.2L160.4,378a18.77,18.77,0,0,0,1.2-3v-.5a11,11,0,0,0,.2-1.8h0a10,10,0,0,0-9.2-10V302.6a10.45,10.45,0,0,0,9.6-10.4,11.38,11.38,0,0,0-1-4.5l52.3-30.2a10.41,10.41,0,0,0,14.3,2.9,13.29,13.29,0,0,0,2.9-2.9l52.6,30.3a10.19,10.19,0,0,0-1.3,5.1,10.45,10.45,0,0,0,9.6,10.4v58.8H291a14.16,14.16,0,0,0-2,.4,10.84,10.84,0,0,0-1.9.8,10,10,0,0,0-4.6,5.1,11,11,0,0,0-.8,4h0a7.79,7.79,0,0,0,.9,4.5m-52,36.4a8.92,8.92,0,0,1-8.9,8.9,8.9,8.9,0,1,1,0-17.8,8.86,8.86,0,0,1,8.9,8.9M212.9,252a8.9,8.9,0,1,1,8.9,8.9,8.92,8.92,0,0,1-8.9-8.9m70.2,41.3a8.9,8.9,0,1,1,8.9,8.9h0a8.86,8.86,0,0,1-8.9-8.9m1.9,74a8.9,8.9,0,1,1,7,14.4,9.05,9.05,0,0,1-8.9-8.9,8,8,0,0,1,1.9-5.5M353.4,252a8.9,8.9,0,1,1,8.9,8.9,8.92,8.92,0,0,1-8.9-8.9m70.2,41.3a8.9,8.9,0,1,1,8.9,8.9h0a8.86,8.86,0,0,1-8.9-8.9m1.9,74a8.9,8.9,0,1,1,7,14.4,9.05,9.05,0,0,1-8.9-8.9,8,8,0,0,1,1.9-5.5M493.8,252a8.9,8.9,0,1,1,8.9,8.9,8.92,8.92,0,0,1-8.9-8.9m70.3,41.3a8.9,8.9,0,1,1,8.9,8.9,8.92,8.92,0,0,1-8.9-8.9m1.8,74a8.9,8.9,0,1,1,7,14.4,9.05,9.05,0,0,1-8.9-8.9,9.86,9.86,0,0,1,1.9-5.5M634.3,252a8.9,8.9,0,1,1,8.9,8.9,8.92,8.92,0,0,1-8.9-8.9m72.1,115.3a8.9,8.9,0,1,1,7,14.4,9.05,9.05,0,0,1-8.9-8.9,8,8,0,0,1,1.9-5.5m7-65.1a8.9,8.9,0,1,1,8.9-8.9,8.92,8.92,0,0,1-8.9,8.9M643.2,180.7a8.9,8.9,0,0,1,0-17.8,8.9,8.9,0,0,1,0,17.8h0m-140.5,0a8.9,8.9,0,1,1,0-17.8,8.9,8.9,0,1,1,0,17.8h0m-140.4,0a8.9,8.9,0,0,1,0-17.8,8.9,8.9,0,0,1,0,17.8h0m-139.7.4h-1.7a9,9,0,1,1,1.5,0M143.6,288.3a8.74,8.74,0,0,1,7.8-4.7,8.9,8.9,0,1,1,0,17.8h0a9.05,9.05,0,0,1-8.9-8.9,14.44,14.44,0,0,1,1.1-4.2m16.8,84.5a8.92,8.92,0,0,1-8.9,8.9,9.05,9.05,0,0,1-8.9-8.9,8.93,8.93,0,0,1,14.2-7.1h.1a8.67,8.67,0,0,1,3.5,7.1m53.5,116.4a8.74,8.74,0,0,1,7.8-4.7,9,9,0,1,1-8.9,9.1,9.88,9.88,0,0,1,1.1-4.4m140.4,0a8.74,8.74,0,0,1,7.8-4.7,8.85,8.85,0,1,1-8.9,8.9,14.44,14.44,0,0,1,1.1-4.2m140.5,0a8.74,8.74,0,0,1,7.8-4.7,9,9,0,1,1-8.9,9.1,9.88,9.88,0,0,1,1.1-4.4m140.5,0a8.74,8.74,0,0,1,7.8-4.7,9,9,0,1,1-8.9,9.1,9.88,9.88,0,0,1,1.1-4.4m148.4-67a8.9,8.9,0,0,1,0-17.8,8.9,8.9,0,0,1,0,17.8h0m79.1-49.4a8.9,8.9,0,1,1-8.9-8.9,8.92,8.92,0,0,1,8.9,8.9m-9-88.4a8.9,8.9,0,1,1-8.9,8.9,8.92,8.92,0,0,1,8.9-8.9m-9.5,3.8a10.19,10.19,0,0,0-1.3,5.1,10.45,10.45,0,0,0,9.6,10.4v58.9a10.33,10.33,0,0,0-8.2,15.5l-52,30a10.5,10.5,0,0,0-9-5.2h0a10.32,10.32,0,0,0-8.6,4.6l-52.1-30.1a6.81,6.81,0,0,0,.8-2.4v.1a13.55,13.55,0,0,0,.2-2h0A11.11,11.11,0,0,0,713.5,362V303.6a10.45,10.45,0,0,0,9.6-10.4,10.19,10.19,0,0,0-1.3-5.1l52.6-30.3a10.41,10.41,0,0,0,14.3,2.9,13.29,13.29,0,0,0,2.9-2.9ZM792.5,252a8.92,8.92,0,0,1-8.9,8.9,9.05,9.05,0,0,1-8.9-8.9,8.9,8.9,0,1,1,17.8,0m-8.8-71.3a8.9,8.9,0,0,1,0-17.8,8.9,8.9,0,0,1,0,17.8h0m79.1-49.4a8.9,8.9,0,1,1-8.9-8.9,8.92,8.92,0,0,1,8.9,8.9m-9-89.1a8.9,8.9,0,1,1-8.9,8.9,8.92,8.92,0,0,1,8.9-8.9M783.5,1.7a8.9,8.9,0,1,1-8.9,8.9,8.92,8.92,0,0,1,8.9-8.9m-9,14.7a10.41,10.41,0,0,0,14.3,2.9,13.29,13.29,0,0,0,2.9-2.9L844,46.6a9.88,9.88,0,0,0-1,4.5,10.45,10.45,0,0,0,9.6,10.4v59.6a10.38,10.38,0,0,0-9.6,10.4,11.78,11.78,0,0,0,1,4.5l-52,30a10.19,10.19,0,0,0-8.6-4.6h0a10.5,10.5,0,0,0-9,5.2l-52-30a18.77,18.77,0,0,0,1.2-3v.1a13.55,13.55,0,0,0,.2-2h0a11.11,11.11,0,0,0-10.2-11.1V61.4A10.45,10.45,0,0,0,723.2,51a11.38,11.38,0,0,0-1-4.5ZM705.6,46.9a8.74,8.74,0,0,1,7.8-4.7,8.9,8.9,0,0,1,0,17.8h0a9.05,9.05,0,0,1-8.9-8.9,7.77,7.77,0,0,1,1.1-4.2M643.2,1.7a8.9,8.9,0,1,1-8.9,8.9,8.92,8.92,0,0,1,8.9-8.9m-8.6,14.9a10.41,10.41,0,0,0,14.3,2.9,13.29,13.29,0,0,0,2.9-2.9l52.3,30.2c-.1.2-.2.3-.2.5a10.37,10.37,0,0,0,5.5,13.5,13.23,13.23,0,0,0,3.3.8v59.5h-.3a13.55,13.55,0,0,0-2,.2,10.84,10.84,0,0,0-1.9.8,10,10,0,0,0-4.6,5.1,11,11,0,0,0-.8,4h0a11.38,11.38,0,0,0,1,4.5l-52.3,30.2a10.19,10.19,0,0,0-8.6-4.6h0a10.19,10.19,0,0,0-8.6,4.6l-52.3-30.2a2.92,2.92,0,0,0,.4-2.4v-.2a3.08,3.08,0,0,0,.6-1.9h0c0-5.4-9.6-10.4-9.6-10.4V61.6a10.45,10.45,0,0,0,9.6-10.4,11.38,11.38,0,0,0-1-4.5ZM565.1,46.9a8.74,8.74,0,0,1,7.8-4.7,8.9,8.9,0,0,1,0,17.8h0a9.05,9.05,0,0,1-8.9-8.9,7.77,7.77,0,0,1,1.1-4.2M502.6,1.7a8.9,8.9,0,1,1-8.9,8.9h0a9,9,0,0,1,8.9-8.9m-8,14.9a10.41,10.41,0,0,0,14.3,2.9,13.29,13.29,0,0,0,2.9-2.9l52.3,30.2c-.1.2-.2.3-.2.5a10.37,10.37,0,0,0,5.5,13.5,13.23,13.23,0,0,0,3.3.8v59.5h-.8a13.55,13.55,0,0,0-2,.2,10.84,10.84,0,0,0-1.9.8,10,10,0,0,0-4.6,5.1,11,11,0,0,0-.8,4h0a11.38,11.38,0,0,0,1,4.5l-52.3,30.2a10.19,10.19,0,0,0-8.6-4.6h0a10.19,10.19,0,0,0-8.6,4.6l-52.3-30.2a11.72,11.72,0,0,0,.9-2.4v-.2c0-.6.1-1.3.1-1.9h0c0-5.4-9.1-10.4-9.1-10.4V61.6a10.45,10.45,0,0,0,9.6-10.4,11.38,11.38,0,0,0-1-4.5Zm-70,30.3a8.74,8.74,0,0,1,7.8-4.7,8.9,8.9,0,1,1,0,17.8h0a9.05,9.05,0,0,1-8.9-8.9,10.07,10.07,0,0,1,1.1-4.2M362.2,1.7a8.9,8.9,0,1,1-8.9,8.9h0a9,9,0,0,1,8.9-8.9m-8.7,14.9a10.41,10.41,0,0,0,14.3,2.9,13.29,13.29,0,0,0,2.9-2.9L423,46.8c-.1.2-.2.3-.2.5a10.37,10.37,0,0,0,5.5,13.5,13.23,13.23,0,0,0,3.3.8v59.5h-.2a13.55,13.55,0,0,0-2,.2,10.84,10.84,0,0,0-1.9.8,10,10,0,0,0-4.6,5.1,11,11,0,0,0-.8,4h0a11.38,11.38,0,0,0,1,4.5l-52.3,30.2a10.19,10.19,0,0,0-8.6-4.6h0a10.19,10.19,0,0,0-8.6,4.6l-52.3-30.2a2.57,2.57,0,0,0,.3-2.4v-.2a2.64,2.64,0,0,0,.7-1.9h0c0-5.4-9.7-10.4-9.7-10.4V61.6a10.45,10.45,0,0,0,9.6-10.4,11.38,11.38,0,0,0-1-4.5ZM284.1,46.9a8.74,8.74,0,0,1,7.8-4.7,8.9,8.9,0,1,1,0,17.8h0a9.05,9.05,0,0,1-8.9-8.9,10.07,10.07,0,0,1,1.1-4.2M221.7,1.7a8.9,8.9,0,1,1-8.9,8.9h0a9,9,0,0,1,8.9-8.9m-8.2,14.9a10.41,10.41,0,0,0,14.3,2.9,13.29,13.29,0,0,0,2.9-2.9L283,46.8c-.1.2-.2.3-.2.5a10.37,10.37,0,0,0,5.5,13.5,13.23,13.23,0,0,0,3.3.8v59.5h-.7a13.55,13.55,0,0,0-2,.2,10.84,10.84,0,0,0-1.9.8,10,10,0,0,0-4.6,5.1,11,11,0,0,0-.8,4h0a11.38,11.38,0,0,0,1,4.5l-52.7,30.5a10.47,10.47,0,0,0-14.6-1.8,7.69,7.69,0,0,0-1.8,1.8l-52.7-30.4a6.81,6.81,0,0,0,.8-2.4v-.2a12.25,12.25,0,0,0,.2-1.9h0c0-5.4-9.2-10.4-9.2-10.4V61.6a10.45,10.45,0,0,0,9.6-10.4,11.38,11.38,0,0,0-1-4.5ZM143.6,46.9a8.74,8.74,0,0,1,7.8-4.7,8.9,8.9,0,1,1,0,17.8h0a9.05,9.05,0,0,1-8.9-8.9,14.44,14.44,0,0,1,1.1-4.2M81.2,1.7a8.9,8.9,0,1,1-8.9,8.9,8.92,8.92,0,0,1,8.9-8.9M2.1,51.1A8.9,8.9,0,1,1,11,60h0a9,9,0,0,1-8.9-8.9M11,140.2a8.9,8.9,0,1,1,8.9-8.9h0a8.86,8.86,0,0,1-8.9,8.9m8.9-3.6a10,10,0,0,0,1.4-5.1,10.45,10.45,0,0,0-9.6-10.4V61.6a10.45,10.45,0,0,0,9.6-10.4,11.38,11.38,0,0,0-1-4.5L72.5,16.6a10.41,10.41,0,0,0,14.3,2.9,13.29,13.29,0,0,0,2.9-2.9L142,46.8c-.1.2-.2.3-.2.5a10.37,10.37,0,0,0,5.5,13.5,13.23,13.23,0,0,0,3.3.8v59.5h-.3a14.16,14.16,0,0,0-2,.4,10.84,10.84,0,0,0-1.9.8,10,10,0,0,0-4.6,5.1,11,11,0,0,0-.8,4h0a11.38,11.38,0,0,0,1,4.5L89.3,166.4a10.53,10.53,0,0,0-8.2-4,10.19,10.19,0,0,0-8.6,4.6Zm52.5,35.7A8.89,8.89,0,1,1,82.6,181a.9.9,0,0,0-.5.1H80.6a8.77,8.77,0,0,1-8.2-8.8m8.9,70.9a8.9,8.9,0,1,1-8.9,8.9h0a8.86,8.86,0,0,1,8.9-8.9M2.2,292.6a8.9,8.9,0,1,1,8.9,8.9h0a8.86,8.86,0,0,1-8.9-8.9m8.9,89.1a8.9,8.9,0,1,1,8.9-8.9h0a9,9,0,0,1-8.9,8.9m8.8-4.1a10,10,0,0,0,1.4-5.1,10.45,10.45,0,0,0-9.6-10.4V302.6a10.45,10.45,0,0,0,9.6-10.4,11.38,11.38,0,0,0-1-4.5l52.2-30.1a10.41,10.41,0,0,0,14.3,2.9,13.29,13.29,0,0,0,2.9-2.9L142,287.8c-.1.2-.2.3-.2.5a10.37,10.37,0,0,0,5.5,13.5,13.23,13.23,0,0,0,3.3.8v59.5h-.3a14.16,14.16,0,0,0-2,.4,10.84,10.84,0,0,0-1.9.8,10,10,0,0,0-4.6,5.1,11,11,0,0,0-.8,4h0a11.38,11.38,0,0,0,1,4.5L89.7,407.1a10.19,10.19,0,0,0-8.6-4.6,10.5,10.5,0,0,0-9,5.2Zm52.5,35.7a8.9,8.9,0,1,1,8.9,8.9h0a8.86,8.86,0,0,1-8.9-8.9m8.9,71.2a8.9,8.9,0,1,1-8.9,8.9h0a8.86,8.86,0,0,1,8.9-8.9M2.2,533.9a8.9,8.9,0,1,1,8.9,8.9,8.92,8.92,0,0,1-8.9-8.9M11.1,623a8.9,8.9,0,1,1,8.9-8.9,8.92,8.92,0,0,1-8.9,8.9m70.2,41.3a8.9,8.9,0,1,1,8.9-8.9,8.92,8.92,0,0,1-8.9,8.9m8.5-14.4A10.42,10.42,0,0,0,75.5,647a13.29,13.29,0,0,0-2.9,2.9L19.9,619.6a10,10,0,0,0,1.4-5.1,10.45,10.45,0,0,0-9.6-10.4V544.6a10.45,10.45,0,0,0,9.6-10.4,11.38,11.38,0,0,0-1-4.5l52.3-30.1a10.19,10.19,0,0,0,8.6,4.6h0a10.09,10.09,0,0,0,8.1-3.9l52.5,30.2a9.86,9.86,0,0,0-.7,3.8,10.36,10.36,0,0,0,9.6,10.3v59.5h-.3a14.16,14.16,0,0,0-2,.4,10.84,10.84,0,0,0-1.9.8,10,10,0,0,0-4.6,5.1,11,11,0,0,0-.8,4h0a10,10,0,0,0,1.4,5.1ZM151.6,623a9.05,9.05,0,0,1-8.9-8.9,8.66,8.66,0,0,1,1.9-5.4,8.91,8.91,0,1,1,14.1,10.9,9.48,9.48,0,0,1-7.1,3.4m70.2,41.3a8.9,8.9,0,1,1,8.9-8.9,8.92,8.92,0,0,1-8.9,8.9M230,649a10.53,10.53,0,0,0-8.2-4,10.19,10.19,0,0,0-8.6,4.6l-52.6-30.4a10.83,10.83,0,0,0,1.1-3V616a6.28,6.28,0,0,0,.3-1.9h0c0-5.4-9.3-10.4-9.3-10.4V544.6a10.45,10.45,0,0,0,9.6-10.4,11.38,11.38,0,0,0-1-4.5l52.2-30.1a10.19,10.19,0,0,0,8.6,4.6h0a10.53,10.53,0,0,0,8.2-4l52.4,30.2a9.86,9.86,0,0,0-.7,3.8,10.45,10.45,0,0,0,9.6,10.4v59.5h-.7a6.7,6.7,0,0,0-2,0,10.84,10.84,0,0,0-1.9.8,10,10,0,0,0-4.6,5.1,11,11,0,0,0-.8,4h0a11.38,11.38,0,0,0,1,4.5Zm62-26a9.05,9.05,0,0,1-8.9-8.9,8.66,8.66,0,0,1,1.9-5.4,8.91,8.91,0,1,1,14.1,10.9A9.48,9.48,0,0,1,292,623m70.3,40.5a8.9,8.9,0,1,1,8.9-8.9,8.92,8.92,0,0,1-8.9,8.9m8.6-14.8a10.41,10.41,0,0,0-14.3-2.9,13.29,13.29,0,0,0-2.9,2.9l-52.3-30.2a2.57,2.57,0,0,0,.3-2.4v-.2a2.64,2.64,0,0,0,.7-1.9h0c0-5.4-9.7-10.4-9.7-10.4V544.7a10.45,10.45,0,0,0,9.6-10.4,12.17,12.17,0,0,0-.7-3.8L354,500.3a10.53,10.53,0,0,0,8.2,4h0a10.53,10.53,0,0,0,8.2-4l52.4,30.2a9.86,9.86,0,0,0-.7,3.8,10.36,10.36,0,0,0,9.6,10.3v59.5h-.2a4.52,4.52,0,0,0-2-.1,10.84,10.84,0,0,0-1.9.8,10,10,0,0,0-4.6,5.1,11,11,0,0,0-.8,4h0a11.38,11.38,0,0,0,1,4.5ZM432.4,623a9.05,9.05,0,0,1-8.9-8.9,8.66,8.66,0,0,1,1.9-5.4,8.91,8.91,0,1,1,14.1,10.9,9.16,9.16,0,0,1-7.1,3.4m70.2,41.3a8.9,8.9,0,1,1,8.9-8.9,8.92,8.92,0,0,1-8.9,8.9m8.6-14.8a10.19,10.19,0,0,0-8.6-4.6,10.53,10.53,0,0,0-8.2,4l-52.7-30.4a11.72,11.72,0,0,0,.9-2.4v-.2c0-.6.1-1.3.1-1.9h0c0-5.4-9.1-10.4-9.1-10.4V544.7a10.45,10.45,0,0,0,9.6-10.4,12.17,12.17,0,0,0-.7-3.8l52.4-30.2a10.53,10.53,0,0,0,8.2,4h0a10.53,10.53,0,0,0,8.2-4l52.4,30.2a9.86,9.86,0,0,0-.7,3.8,10.36,10.36,0,0,0,9.6,10.3v59.5h-.8a4.52,4.52,0,0,0-2-.1,10.84,10.84,0,0,0-1.9.8,10,10,0,0,0-4.6,5.1,11,11,0,0,0-.8,4h0a10,10,0,0,0,1.4,5.1ZM572.9,623a9.05,9.05,0,0,1-8.9-8.9,8.66,8.66,0,0,1,1.9-5.4A8.91,8.91,0,1,1,580,619.6a9.16,9.16,0,0,1-7.1,3.4m70.3,40.5a8.9,8.9,0,0,1,0-17.8,8.9,8.9,0,1,1,0,17.8h0m8.6-14.8a10.19,10.19,0,0,0-8.6-4.6h0a10.19,10.19,0,0,0-8.6,4.6l-52.3-30.2a2.92,2.92,0,0,0,.4-2.4v-.2a3.08,3.08,0,0,0,.6-1.9h0c0-5.4-9.6-10.4-9.6-10.4v-59a10.45,10.45,0,0,0,9.6-10.4,12.17,12.17,0,0,0-.7-3.8L635,500.2a10.53,10.53,0,0,0,8.2,4h0a10.53,10.53,0,0,0,8.2-4l52.4,30.2a9.86,9.86,0,0,0-.7,3.8,10.45,10.45,0,0,0,9.6,10.4v59.5h-.3a6.7,6.7,0,0,0-2,0,10.84,10.84,0,0,0-1.9.8,10,10,0,0,0-4.6,5.1,11,11,0,0,0-.8,4h0a11.38,11.38,0,0,0,1,4.5ZM713.3,623a9.05,9.05,0,0,1-8.9-8.9,8.66,8.66,0,0,1,1.9-5.4,8.91,8.91,0,1,1,14.1,10.9,9.16,9.16,0,0,1-7.1,3.4m70.2,40.5a8.9,8.9,0,1,1,8.9-8.9,8.92,8.92,0,0,1-8.9,8.9m9-14.7a10.42,10.42,0,0,0-14.3-2.9,13.29,13.29,0,0,0-2.9,2.9l-52.5-30.3a6.81,6.81,0,0,0,.8-2.4v-.4a11,11,0,0,0,.2-1.8h0a10,10,0,0,0-9.2-10V544.3a10.45,10.45,0,0,0,9.6-10.4,12.17,12.17,0,0,0-.7-3.8l52.4-30.2a10.53,10.53,0,0,0,8.2,4h0a10.53,10.53,0,0,0,8.2-4L845,530.3a9.88,9.88,0,0,0-1,4.5,10.45,10.45,0,0,0,9.6,10.4v58.5a10.45,10.45,0,0,0-9.6,10.4,11.38,11.38,0,0,0,1,4.5Zm70.3-34.7a8.9,8.9,0,1,1-8.9-8.9,8.92,8.92,0,0,1,8.9,8.9m-9.7-71h0a8.78,8.78,0,0,1-8.1-9.5v-.1a8.94,8.94,0,1,1,9.7,9.7v-.1Z"/><text class="cls-3" transform="translate(72.75 104.84)">OCR</text><text class="cls-3" transform="translate(774.85 587.34)">etc..</text><text class="cls-4" transform="translate(181.46 98.06)">Invoices</text><text class="cls-4" transform="translate(320.23 98.06)">Receipts</text><text class="cls-4" transform="translate(455.88 86.06)">Purchase</text><text class="cls-4" transform="translate(467.63 111.26)">Orders</text><text class="cls-4" transform="translate(618.36 86.06)">Bank</text><text class="cls-4" transform="translate(591.94 111.26)">Statements</text><text class="cls-4" transform="translate(739.37 86.06)">Property</text><text class="cls-4" transform="translate(718.22 111.26)">Assessments</text><text class="cls-4" transform="translate(132.72 188.46)">CRE</text><text class="cls-4" transform="translate(126.65 213.66)">Sales</text><text class="cls-4" transform="translate(117.18 238.86)">Comps</text><text class="cls-4" transform="translate(263.76 203.91)">Lease</text><text class="cls-4" transform="translate(228.97 229.11)">Abstractions</text><text class="cls-4" transform="translate(408.2 203.91)">Rent</text><text class="cls-4" transform="translate(407.66 229.11)">Rolls</text><text class="cls-4" transform="translate(530.25 201.31)">Offering</text><text class="cls-4" transform="translate(534.84 226.51)">Memos</text><text class="cls-4" transform="translate(674.8 196.66)">Trailing</text><text class="cls-4" transform="translate(677.48 221.86)">Twelve</text><text class="cls-4" transform="translate(673.97 247.06)">Months</text><text class="cls-4" transform="translate(30.27 328.26)">Operating</text><text class="cls-4" transform="translate(23.14 353.46)">Statements</text><text class="cls-4" transform="translate(172.47 328.26)">Insurance</text><text class="cls-4" transform="translate(165.04 353.46)">Certificates</text><text class="cls-4" transform="translate(312.77 328.26)">Insurance</text><text class="cls-4" transform="translate(329.2 353.46)">Claims</text><text class="cls-4" transform="translate(452.47 328.26)">Insurance</text><text class="cls-4" transform="translate(470.97 353.46)">Forms</text><text class="cls-4" transform="translate(624.53 326.57)">Tax</text><text class="cls-4" transform="translate(610.67 351.77)">Forms</text><text class="cls-4" transform="translate(744.22 328.26)">Medical</text><text class="cls-4" transform="translate(749.9 353.46)">Claims</text><text class="cls-4" transform="translate(120.19 447.46)">Utility</text><text class="cls-4" transform="translate(129.82 472.66)">Bills</text><text class="cls-4" transform="translate(243.25 462.16)">Passports</text><text class="cls-4" transform="translate(421.69 447.46)">ID</text><text class="cls-4" transform="translate(403.67 472.66)">Cards</text><text class="cls-4" transform="translate(551.63 447.46)">Dock</text><text class="cls-4" transform="translate(534.23 472.66)">Receipts</text><text class="cls-4" transform="translate(670.27 451.83)">Shipping</text><text class="cls-4" transform="translate(681.74 477.03)">Labels</text><text class="cls-4" transform="translate(39.34 573.56)">Seaway</text><text class="cls-4" transform="translate(56.73 598.76)">Bills</text><text class="cls-4" transform="translate(187.96 573.56)">Airway</text><text class="cls-4" transform="translate(201.83 598.76)">Bills</text><text class="cls-4" transform="translate(319.07 573.56)">Shipping</text><text class="cls-4" transform="translate(303.95 598.76)">Guarantees</text><text class="cls-4" transform="translate(463.46 573.56)">Packing</text><text class="cls-4" transform="translate(479.68 598.76)">Lists</text><text class="cls-4" transform="translate(608.57 573.56)">Bills of</text><text class="cls-4" transform="translate(608.59 598.76)">Lading</text></svg>