<svg id="Camada_1" data-name="Camada 1" xmlns="http://www.w3.org/2000/svg" viewBox="0 0 728 169.4"><defs><style>.cls-1{fill:#e30613;}.cls-2{fill:#24529e;}.cls-3{fill:#4e504f;}</style></defs><path class="cls-1" d="M22,676" transform="translate(-51 -427)"/><g id="svg_1" data-name="svg 1"><g id="svg_2" data-name="svg 2"><polygon id="svg_3" data-name="svg 3" class="cls-2" points="43.69 73.3 24.7 84.46 24.7 141.48 72.98 169.4 91.81 158.39 43.69 130.39 43.69 73.3"/><polygon id="svg_4" data-name="svg 4" class="cls-2" points="145.65 43.02 126.42 31.61 126.42 68.66 145.65 78.72 145.65 43.02"/><polygon id="svg_5" data-name="svg 5" class="cls-2" points="48.6 105.54 48.6 127.64 96.64 155.56 145.65 126.93 145.65 105.07 97.05 133.07 48.6 105.54"/><polygon id="svg_6" data-name="svg 6" class="cls-2" points="121.51 28.7 72.98 0 54.32 11.09 102.52 40.03 102.52 56.15 121.51 66.06 121.51 28.7"/><polygon id="svg_7" data-name="svg 7" class="cls-2" points="48.92 42.7 0 70.78 0 127.17 19.8 138.65 19.8 81.71 43.69 67.63 48.6 64.72 67.92 53.4 48.92 42.7"/><polygon id="svg_8" data-name="svg 8" class="cls-2" points="49.57 13.92 0 43.33 0 65.2 48.92 37.2 72.66 50.57 77.57 53.24 97.61 64.49 97.61 42.7 49.57 13.92"/></g><g id="svg_9" data-name="svg 9"><path id="svg_10" data-name="svg 10" class="cls-3" d="M243.16,485.67v53.95A19.69,19.69,0,0,0,263,559h42.41v-7.7H263.36a12.3,12.3,0,0,1-12.48-12.19V486.93a12.3,12.3,0,0,1,12.48-12.19l42.08.08v-8.58H263A19.64,19.64,0,0,0,243.16,485.67Z" transform="translate(-51 -427)"/><path id="svg_11" data-name="svg 11" class="cls-3" d="M352.92,468.21,314.78,559h9.73l31.71-80.84a.39.39,0,0,1,.72,0l31.63,80.92h9.81l-37.17-90.83A4.52,4.52,0,0,0,352.92,468.21Z" transform="translate(-51 -427)"/><path id="svg_12" data-name="svg 12" class="cls-3" d="M741.74,468.29a4.5,4.5,0,0,0-8.29,0l-38.14,90.83h9.74l31.78-80.92a.4.4,0,0,1,.73,0l31.62,80.92H779Z" transform="translate(-51 -427)"/><path id="svg_13" data-name="svg 13" class="cls-3" d="M702.64,465.93l-31.79,80.92a.39.39,0,0,1-.72,0L638.5,465.93h-9.82l37.18,90.83a4.5,4.5,0,0,0,8.29,0l38.14-90.83Z" transform="translate(-51 -427)"/><path id="svg_14" data-name="svg 14" class="cls-3" d="M456.64,466.24H408.52v92.88h8.21V523.81h39.91a20.44,20.44,0,0,0,20.68-20.21V486.53a20.46,20.46,0,0,0-20.68-20.29Zm13.44,36.57a13.69,13.69,0,0,1-13.84,13.53H416.41V474.66h39.83a13.69,13.69,0,0,1,13.84,13.53Z" transform="translate(-51 -427)"/><polygon id="svg_15" data-name="svg 15" class="cls-3" points="435.9 47.03 462.53 47.03 462.53 132.12 471.14 132.12 471.14 46.87 497.94 46.87 497.94 38.54 435.9 38.54 435.9 47.03"/><path id="svg_16" data-name="svg 16" class="cls-3" d="M600.36,465.54H577.18a21.57,21.57,0,0,0-21.8,21.31v50.88A21.57,21.57,0,0,0,577.18,559h23.18a21.58,21.58,0,0,0,21.81-21.31V486.85a21.58,21.58,0,0,0-21.81-21.31Zm13.6,72A13.72,13.72,0,0,1,600,551.1H577.51a13.71,13.71,0,0,1-13.92-13.6V487.16a13.71,13.71,0,0,1,13.92-13.6h22.61A13.72,13.72,0,0,1,614,487.16V537.5Z" transform="translate(-51 -427)"/></g></g></svg>